<?xml version="1.0" encoding="iso-8859-1"?>
<!-- Generator: Adobe Illustrator 19.1.0, SVG Export Plug-In . SVG Version: 6.00 Build 0)  -->
<svg fill="currentColor" version="1.1" id="Capa_1" xmlns="http://www.w3.org/2000/svg" xmlns:xlink="http://www.w3.org/1999/xlink" x="0px" y="0px"
	 viewBox="0 0 67.551 67.551" style="enable-background:new 0 0 67.551 67.551;" xml:space="preserve">
<g>
	<g>
		<path d="M57.763,39.836c3.895,3.729,5.788,8.795,5.788,15.491c0,1.104,0.896,2,2,2s2-0.885,2-1.989
			c0-7.736-2.362-13.91-7.022-18.369c-10.776-10.312-31.097-9.4-47.422-8.682c-2.28,0.101-4.461,0.211-6.499,0.28l14.927-14.929
			c0.781-0.781,0.781-2.047,0-2.828s-2.048-0.781-2.828,0L0.586,28.933C0.211,29.308,0,29.817,0,30.347s0.211,1.039,0.586,1.414
			l18.123,18.12c0.391,0.391,0.902,0.586,1.414,0.586s1.024-0.195,1.415-0.586c0.781-0.781,0.781-2.048,0-2.828L7.249,32.768
			c1.915-0.11,3.932-0.261,6.033-0.354C28.026,31.766,48.221,30.706,57.763,39.836z"/>
	</g>
</g>
<g>
</g>
<g>
</g>
<g>
</g>
<g>
</g>
<g>
</g>
<g>
</g>
<g>
</g>
<g>
</g>
<g>
</g>
<g>
</g>
<g>
</g>
<g>
</g>
<g>
</g>
<g>
</g>
<g>
</g>
</svg>
