<?xml version="1.0" encoding="iso-8859-1"?>
<!-- Generator: Adobe Illustrator 19.1.0, SVG Export Plug-In . SVG Version: 6.00 Build 0)  -->
<svg fill="currentColor" version="1.1" id="Capa_1" xmlns="http://www.w3.org/2000/svg" xmlns:xlink="http://www.w3.org/1999/xlink" x="0px" y="0px"
	 viewBox="0 0 72 72" style="enable-background:new 0 0 72 72;" xml:space="preserve">
<g>
	<g>
		<path d="M9.55,52.506h21.998l23.287,16.643c0.347,0.249,0.756,0.346,1.166,0.346c0.312,0,0.625-0.089,0.914-0.236
			C57.58,68.914,58,68.214,58,67.464V52.506h3.722C67.389,52.506,72,48.11,72,42.854V12.339c0-5.395-4.707-9.833-10.278-9.833H9.55
			C4.195,2.506,0,6.758,0,12.339v30.516C0,48.289,4.105,52.506,9.55,52.506z M4,12.339c0-3.338,2.438-5.833,5.55-5.833h52.172
			c3.344,0,6.278,2.662,6.278,5.833v30.516c0,3.05-2.816,5.651-6.278,5.651H56c-1.104,0-2,0.776-2,1.881v13.182L33.356,48.82
			c-0.34-0.244-0.748-0.315-1.166-0.315H9.55c-3.268,0-5.55-2.395-5.55-5.651V12.339z"/>
		<path d="M13,18.506h45c1.104,0,2-0.896,2-2s-0.896-2-2-2H13c-1.104,0-2,0.896-2,2S11.896,18.506,13,18.506z"/>
		<path d="M13,27.506h27c1.104,0,2-0.896,2-2s-0.896-2-2-2H13c-1.104,0-2,0.896-2,2S11.896,27.506,13,27.506z"/>
	</g>
</g>
<g>
</g>
<g>
</g>
<g>
</g>
<g>
</g>
<g>
</g>
<g>
</g>
<g>
</g>
<g>
</g>
<g>
</g>
<g>
</g>
<g>
</g>
<g>
</g>
<g>
</g>
<g>
</g>
<g>
</g>
</svg>
