<?xml version="1.0" encoding="iso-8859-1"?>
<!-- Generator: Adobe Illustrator 19.1.0, SVG Export Plug-In . SVG Version: 6.00 Build 0)  -->
<svg fill="currentColor" version="1.1" id="Capa_1" xmlns="http://www.w3.org/2000/svg" xmlns:xlink="http://www.w3.org/1999/xlink" x="0px" y="0px"
	 viewBox="0 0 82.118 82.118" style="enable-background:new 0 0 82.118 82.118;" xml:space="preserve">
<g>
	<g>
		<path d="M75.346,15.559h-47.9c-3.499,0-4.873,1.509-6.328,2.905c-0.294,0.283-0.613,0.685-0.982,1.01
			c-0.045,0.04-0.088,0.128-0.129,0.172L0.548,40.216c-0.721,0.761-0.731,1.962-0.024,2.737l19.459,21.298
			c0.07,0.076,0.146-0.04,0.227,0.024c2.194,1.756,3.463,2.284,7.237,2.284h47.899c4.35,0,6.772-2.659,6.772-7.184V24.2
			C82.118,19.491,79.491,15.559,75.346,15.559z M78.118,59.375c0,1.331,0.075,3.184-2.772,3.184h-47.9
			c-2.675,0-3.106-0.101-4.616-1.307L4.731,41.544L22.85,22.461c0.387-0.344,0.725-0.833,1.037-1.134
			c1.281-1.229,1.668-1.767,3.559-1.767h47.899c2.248,0,2.772,2.589,2.772,4.641v35.174H78.118z"/>
		<path d="M26.143,34.135c-4.297,0-7.793,3.496-7.793,7.794c0,4.297,3.496,7.793,7.793,7.793s7.793-3.496,7.793-7.793
			C33.936,37.631,30.44,34.135,26.143,34.135z M26.143,45.722c-2.092,0-3.793-1.701-3.793-3.793s1.701-3.794,3.793-3.794
			s3.793,1.702,3.793,3.794S28.235,45.722,26.143,45.722z"/>
	</g>
</g>
<g>
</g>
<g>
</g>
<g>
</g>
<g>
</g>
<g>
</g>
<g>
</g>
<g>
</g>
<g>
</g>
<g>
</g>
<g>
</g>
<g>
</g>
<g>
</g>
<g>
</g>
<g>
</g>
<g>
</g>
</svg>
