<?xml version="1.0" encoding="iso-8859-1"?>
<!-- Generator: Adobe Illustrator 19.1.0, SVG Export Plug-In . SVG Version: 6.00 Build 0)  -->
<svg fill="currentColor" version="1.1" id="Capa_1" xmlns="http://www.w3.org/2000/svg" xmlns:xlink="http://www.w3.org/1999/xlink" x="0px" y="0px"
	 viewBox="0 0 67.533 67.533" style="enable-background:new 0 0 67.533 67.533;" xml:space="preserve">
<g transform="translate(7.5, 7.5) scale(0.78)">
	<g>
		<path d="M0.586,13.157c0.391,0.391,0.903,0.586,1.415,0.586s1.023-0.195,1.414-0.586L7.22,9.353l3.137,3.137l-5.296,5.295
			c-0.781,0.78-0.781,2.047,0,2.828c0.391,0.391,0.903,0.586,1.415,0.586s1.023-0.195,1.414-0.586l5.296-5.295l21.856,21.856
			c-2.594,3.228-4.009,7.206-4.009,11.405c0,4.876,1.899,9.46,5.347,12.907c3.447,3.448,8.032,5.347,12.908,5.347
			c4.877,0,9.46-1.898,12.907-5.346c7.118-7.117,7.118-18.698,0.001-25.816c-3.447-3.448-8.031-5.348-12.908-5.348
			c-4.205,0-8.189,1.42-11.42,4.021L14.601,11.079c-0.001-0.001-0.001-0.002-0.002-0.003s-0.002-0.001-0.002-0.002l-5.96-6.086
			C8.636,4.987,8.636,4.859,8.635,4.859s-0.002,0-0.002,0L4.906,1.256c-0.78-0.781-2.048-0.718-2.828,0.063
			c-0.781,0.781-0.781,2.079,0,2.86l2.314,2.33l-3.805,3.812C-0.195,11.101-0.195,12.376,0.586,13.157z M59.367,38.5
			c5.557,5.559,5.557,14.603-0.001,20.16c-2.692,2.691-6.271,4.174-10.079,4.174s-7.388-1.482-10.08-4.175
			c-2.691-2.692-4.175-6.271-4.175-10.079s1.482-7.388,4.174-10.08s6.272-4.176,10.081-4.176
			C53.095,34.324,56.675,35.807,59.367,38.5z"/>
	</g>
</g>
<g>
</g>
<g>
</g>
<g>
</g>
<g>
</g>
<g>
</g>
<g>
</g>
<g>
</g>
<g>
</g>
<g>
</g>
<g>
</g>
<g>
</g>
<g>
</g>
<g>
</g>
<g>
</g>
<g>
</g>
</svg>
