<svg fill="currentColor" viewBox="0 0 68 68" xmlns="http://www.w3.org/2000/svg">
	<g transform="translate(7, 7) scale(0.85)">
		<path d="M12,42c-1.381,0-2.5,1.119-2.5,2.5v21c0,1.381,1.119,2.5,2.5,2.5s2.5-1.119,2.5-2.5v-21C14.5,43.119,13.381,42,12,42z"/>
		<path d="M27,27c-1.381,0-2.5,1.119-2.5,2.5v36c0,1.381,1.119,2.5,2.5,2.5s2.5-1.119,2.5-2.5v-36C29.5,28.119,28.381,27,27,27z"/>
		<path d="M41,11c-1.381,0-2.5,1.119-2.5,2.5v52c0,1.381,1.119,2.5,2.5,2.5c1.381,0,2.5-1.119,2.5-2.5v-52C43.5,12.119,42.381,11,41,11z"/>
		<path d="M56,0c-1.381,0-2.5,1.119-2.5,2.5v63c0,1.381,1.119,2.5,2.5,2.5s2.5-1.119,2.5-2.5v-63C58.5,1.119,57.381,0,56,0z"/>
	</g>
</svg>
