<?xml version="1.0" encoding="iso-8859-1"?>
<!-- Generator: Adobe Illustrator 19.1.0, SVG Export Plug-In . SVG Version: 6.00 Build 0)  -->
<svg fill="currentColor" version="1.1" id="Capa_1" xmlns="http://www.w3.org/2000/svg" xmlns:xlink="http://www.w3.org/1999/xlink" x="0px" y="0px"
	 viewBox="0 0 68.119 68.119" style="enable-background:new 0 0 68.119 68.119;" xml:space="preserve">
<g>
	<g>
		<path d="M62.06,22.498c0-0.559-0.234-1.093-0.646-1.472L39.904,1.225C39.601,0.505,38.89,0,38.06,0
			c-0.044,0-0.085,0.07-0.129,0.073c-0.046-0.004-0.092,0.046-0.139,0.046h-22.13c-6.012,0-9.602,2.814-9.602,7.728v50.188
			c0,5.495,4.308,10.084,9.603,10.084H52.34c5.269,0,9.72-4.683,9.72-10.084V22.498z M40.06,6.806l15.42,14.313H40.06V6.806z
			 M52.339,64.119H15.663c-3.038,0-5.603-2.851-5.603-6.084V7.847c0-1.053,0-3.728,5.603-3.728H36.06V23
			c0,1.104,0.896,2.119,2,2.119h20v32.916C58.06,61.268,55.439,64.119,52.339,64.119z"/>
	</g>
</g>
<g>
</g>
<g>
</g>
<g>
</g>
<g>
</g>
<g>
</g>
<g>
</g>
<g>
</g>
<g>
</g>
<g>
</g>
<g>
</g>
<g>
</g>
<g>
</g>
<g>
</g>
<g>
</g>
<g>
</g>
</svg>
