<?xml version="1.0" encoding="iso-8859-1"?>
<!-- Generator: Adobe Illustrator 19.1.0, SVG Export Plug-In . SVG Version: 6.00 Build 0)  -->
<svg fill="currentColor" version="1.1" id="Capa_1" xmlns="http://www.w3.org/2000/svg" xmlns:xlink="http://www.w3.org/1999/xlink" x="0px" y="0px"
	 viewBox="0 0 83.001 83.001" style="enable-background:new 0 0 83.001 83.001;" xml:space="preserve">
<g>
	<g>
		<path d="M72.988,17.5H42.723l-9.312-9.407C33.036,7.715,32.524,7.5,31.99,7.5h-21C5.401,7.5,0,12.628,0,18.039v48
			c0,5.335,5.303,9.461,10.989,9.461h63c5.423,0,9.012-3.851,9.012-9.461v-38C83,22.628,78.588,17.5,72.988,17.5z M79,66.04
			c0,3.385-1.818,5.461-5.012,5.461h-63c-3.517,0-6.989-2.294-6.989-5.461v-48c0-3.223,3.593-6.539,6.989-6.539h20.166l9.312,9.407
			c0.375,0.379,0.887,0.593,1.421,0.593h31.1c3.408,0,6.012,3.316,6.012,6.539L79,66.04L79,66.04z"/>
	</g>
</g>
<g>
</g>
<g>
</g>
<g>
</g>
<g>
</g>
<g>
</g>
<g>
</g>
<g>
</g>
<g>
</g>
<g>
</g>
<g>
</g>
<g>
</g>
<g>
</g>
<g>
</g>
<g>
</g>
<g>
</g>
</svg>
