<?xml version="1.0" encoding="iso-8859-1"?>
<!-- Generator: Adobe Illustrator 19.1.0, SVG Export Plug-In . SVG Version: 6.00 Build 0)  -->
<svg fill="currentColor" version="1.1" id="Capa_1" xmlns="http://www.w3.org/2000/svg" xmlns:xlink="http://www.w3.org/1999/xlink" x="0px" y="0px"
	 viewBox="0 0 59.827 59.827" style="enable-background:new 0 0 59.827 59.827;" xml:space="preserve">
<g>
	<g>
		<path d="M28.771,59.827c1.104,0,2-0.896,2-2V6.138l16.357,16.11c0.391,0.391,1.027,0.586,1.539,0.586s1.086-0.195,1.477-0.586
			c0.781-0.78,0.812-2.047,0.031-2.828L31.337,0.562c-0.75-0.75-2.07-0.75-2.821,0L9.666,19.42
			c-0.781,0.781-0.779,2.048,0.002,2.828c0.781,0.781,1.798,0.781,2.58,0L26.771,7.475v50.353
			C26.771,58.932,27.667,59.827,28.771,59.827z"/>
	</g>
</g>
<g>
</g>
<g>
</g>
<g>
</g>
<g>
</g>
<g>
</g>
<g>
</g>
<g>
</g>
<g>
</g>
<g>
</g>
<g>
</g>
<g>
</g>
<g>
</g>
<g>
</g>
<g>
</g>
<g>
</g>
</svg>
