<svg fill="currentColor" viewBox="0 0 62 62" xmlns="http://www.w3.org/2000/svg">
  <path d="M2,18h4c1.104,0,2-0.896,2-2s-0.896-2-2-2H2c-1.104,0-2,0.896-2,2S0.896,18,2,18z"/>
  <path d="M2,33h4c1.104,0,2-0.896,2-2s-0.896-2-2-2H2c-1.104,0-2,0.896-2,2S0.896,33,2,33z"/>
  <path d="M2,48h4c1.104,0,2-0.896,2-2s-0.896-2-2-2H2c-1.104,0-2,0.896-2,2S0.896,48,2,48z"/>
  <path d="M16,18h44c1.104,0,2-0.896,2-2s-0.896-2-2-2H16c-1.104,0-2,0.896-2,2S14.896,18,16,18z"/>
  <path d="M16,33h44c1.104,0,2-0.896,2-2s-0.896-2-2-2H16c-1.104,0-2,0.896-2,2S14.896,33,16,33z"/>
  <path d="M16,48h44c1.104,0,2-0.896,2-2s-0.896-2-2-2H16c-1.104,0-2,0.896-2,2S14.896,48,16,48z"/>
</svg>
